<svg xmlns="http://www.w3.org/2000/svg" width="500px" height="500px" viewBox="0 0 500 500"><defs><clipPath id="a"><path style="isolation:auto;mix-blend-mode:normal" color="#000" overflow="visible" solid-color="#000000" fill="#b3b3b3" stroke-width="4" stroke-linecap="round" stroke-linejoin="round" d="M299.59 94.2306h72.9858v83.5515h-72.986z"/></clipPath><clipPath id="b"><path transform="translate(-80.098)" clip-path="url(#a)" d="M320.6388 154.571c-.4562-.0867-1.7168-.8433-5.1238-3.0754-6.7964-4.4526-24.85-16.936-25.1635-17.3996-.3524-.521-.402-.9748-.1714-1.5686.218-.5615 6.3375-6.5197 7.0698-6.8835.6565-.3262 1.4764-.3683 2.1212-.109.3072.1236 4.5605 2.903 9.452 6.177 9.7585 6.5315 9.4377 6.3548 10.7143 5.898.6452-.231 1.2404-.85 20.9323-21.765 6.2976-6.6888 11.452-12.053 11.673-12.1486.5622-.243 1.3545-.2986 1.9335-.136.7502.2108 8.4062 5.3106 8.761 5.836.3913.5796.4348.997.1702 1.6358-.3326.8032-40.2468 43.1138-40.948 43.4065-.6464.2697-.679.2728-1.4207.1303z" fill="#fff"/></clipPath></defs><text style="line-height:125%" x="326.7844" y="199.7935" font-size="15" font-family="sans-serif" letter-spacing="0" word-spacing="0" transform="translate(-279.448 336.74)"/><path d="M.89.242h255.782V500H.89zM474.606 140.117c-60.028-123.86-207.9796-175.048-330.383-114.3054C21.8194 86.5538-28.7666 236.2657 31.2617 360.1254c60.028 123.86 207.9795 175.048 330.383 114.3055 122.4036-60.7425 172.9897-210.4544 112.9614-334.3142z" style="isolation:auto;mix-blend-mode:normal" color="#000" overflow="visible" solid-color="#000000" fill="#2ba9e0"/><path d="M474.4445 140.1167C430.05 45.6625 322.1122-12.5973 219.2288 2.322c-97.962 11.7782-184.456 87.6233-208.1703 184.19-27.9065 99.8675 15.0932 213.8845 101.204 270.6782 81.6323 57.0215 197.1573 56.7308 278.6272-.3178 86.45-57.2443 128.7883-172.2813 100.2707-272.331-4.153-15.297-9.7704-30.1893-16.716-44.4247z" fill="#2ba9e0"/><g transform="matrix(7.62077 0 0 7.59736 -1672.36 -742.468)" clip-path="url(#b)" fill="#fff"><path d="M281.6857 115.892c-7.9725-16.303-27.6223-23.0407-43.879-15.0455-16.2568 7.9952-22.9753 27.701-15.0028 44.004 7.9724 16.303 27.6223 23.0406 43.879 15.0454 16.2567-7.9953 22.9752-27.701 15.0027-44.004z"/><path style="isolation:auto;mix-blend-mode:normal" color="#000" overflow="visible" solid-color="#000000" d="M219.5647 97.481h33.5638v65.7804h-33.5638z"/></g></svg>
